# xmcd CD database file
#
# Track frame offsets:
#	150
#	14530
#	27997
#	43357
#	64970
#	76835
#	90517
#	104980
#	121270
#	142337
#	157772
#	174035
#	186650
#
# Disc length: 2822 seconds
#
# Revision: 0
# Processed by: cddbd v1.5PL3 Copyright (c) Steve Scherf et al.
# Submitted via: CDex 1.50
#
DISCID=b40b040d
DTITLE=At the Drive-In - In Casino Out [Japan Bonus Tracks]
DYEAR=2002
DGENRE=Rock
TTITLE0=Alpha Centauri
TTITLE1=Chanbara
TTITLE2=Hulahoop Wounds
TTITLE3=Napoleon Solo
TTITLE4=Pickpocket
TTITLE5=For Now..We Toat
TTITLE6=A Devil Among the Tailors
TTITLE7=Shaking Hand Incision
TTITLE8=Lopsided
TTITLE9=Hourglass
TTITLE10=Transatlantic Foe
TTITLE11=Proximus Centauri
TTITLE12=Doorman's Placebo
EXTD=YEAR: 2002
EXTT0=
EXTT1=
EXTT2=
EXTT3=
EXTT4=
EXTT5=
EXTT6=
EXTT7=
EXTT8=
EXTT9=
EXTT10=
EXTT11=
EXTT12=
PLAYORDER=
